<?xml version="1.0" encoding="utf-8" standalone="no"?>
<!DOCTYPE svg PUBLIC "-//W3C//DTD SVG 1.1//EN"
  "http://www.w3.org/Graphics/SVG/1.1/DTD/svg11.dtd">
<svg height="288pt" version="1.1" viewBox="0 0 432 288" width="432pt" xmlns="http://www.w3.org/2000/svg" xmlns:xlink="http://www.w3.org/1999/xlink">
 <metadata>
  <rdf:RDF xmlns:cc="http://creativecommons.org/ns#" xmlns:dc="http://purl.org/dc/elements/1.1/" xmlns:rdf="http://www.w3.org/1999/02/22-rdf-syntax-ns#">
   <cc:Work>
    <dc:type rdf:resource="http://purl.org/dc/dcmitype/StillImage"/>
    <dc:date>2022-08-04T03:44:01.842332</dc:date>
    <dc:format>image/svg+xml</dc:format>
    <dc:creator>
     <cc:Agent>
      <dc:title>Matplotlib v3.4.3, https://matplotlib.org/</dc:title>
     </cc:Agent>
    </dc:creator>
   </cc:Work>
  </rdf:RDF>
 </metadata>
 <defs>
  <style type="text/css">*{stroke-linecap:butt;stroke-linejoin:round;}</style>
 </defs>
 <g id="figure_1">
  <g id="patch_1">
   <path d="M 0 288 
L 432 288 
L 432 0 
L 0 0 
z
" style="fill:none;"/>
  </g>
  <g id="axes_1">
   <g id="patch_2">
    <path d="M 49.555882 99.566667 
L 122.322549 99.566667 
L 122.322549 26.8 
L 49.555882 26.8 
z
" style="fill:#ffffff;"/>
   </g>
   <g id="matplotlib.axis_1"/>
   <g id="matplotlib.axis_2">
    <g id="text_1">
     <!-- type0 -->
     <g transform="translate(43.060257 80.405208)rotate(-90)scale(0.12 -0.12)">
      <defs>
       <path d="M 1172 4494 
L 1172 3500 
L 2356 3500 
L 2356 3053 
L 1172 3053 
L 1172 1153 
Q 1172 725 1289 603 
Q 1406 481 1766 481 
L 2356 481 
L 2356 0 
L 1766 0 
Q 1100 0 847 248 
Q 594 497 594 1153 
L 594 3053 
L 172 3053 
L 172 3500 
L 594 3500 
L 594 4494 
L 1172 4494 
z
" id="DejaVuSans-74" transform="scale(0.015625)"/>
       <path d="M 2059 -325 
Q 1816 -950 1584 -1140 
Q 1353 -1331 966 -1331 
L 506 -1331 
L 506 -850 
L 844 -850 
Q 1081 -850 1212 -737 
Q 1344 -625 1503 -206 
L 1606 56 
L 191 3500 
L 800 3500 
L 1894 763 
L 2988 3500 
L 3597 3500 
L 2059 -325 
z
" id="DejaVuSans-79" transform="scale(0.015625)"/>
       <path d="M 1159 525 
L 1159 -1331 
L 581 -1331 
L 581 3500 
L 1159 3500 
L 1159 2969 
Q 1341 3281 1617 3432 
Q 1894 3584 2278 3584 
Q 2916 3584 3314 3078 
Q 3713 2572 3713 1747 
Q 3713 922 3314 415 
Q 2916 -91 2278 -91 
Q 1894 -91 1617 61 
Q 1341 213 1159 525 
z
M 3116 1747 
Q 3116 2381 2855 2742 
Q 2594 3103 2138 3103 
Q 1681 3103 1420 2742 
Q 1159 2381 1159 1747 
Q 1159 1113 1420 752 
Q 1681 391 2138 391 
Q 2594 391 2855 752 
Q 3116 1113 3116 1747 
z
" id="DejaVuSans-70" transform="scale(0.015625)"/>
       <path d="M 3597 1894 
L 3597 1613 
L 953 1613 
Q 991 1019 1311 708 
Q 1631 397 2203 397 
Q 2534 397 2845 478 
Q 3156 559 3463 722 
L 3463 178 
Q 3153 47 2828 -22 
Q 2503 -91 2169 -91 
Q 1331 -91 842 396 
Q 353 884 353 1716 
Q 353 2575 817 3079 
Q 1281 3584 2069 3584 
Q 2775 3584 3186 3129 
Q 3597 2675 3597 1894 
z
M 3022 2063 
Q 3016 2534 2758 2815 
Q 2500 3097 2075 3097 
Q 1594 3097 1305 2825 
Q 1016 2553 972 2059 
L 3022 2063 
z
" id="DejaVuSans-65" transform="scale(0.015625)"/>
       <path d="M 2034 4250 
Q 1547 4250 1301 3770 
Q 1056 3291 1056 2328 
Q 1056 1369 1301 889 
Q 1547 409 2034 409 
Q 2525 409 2770 889 
Q 3016 1369 3016 2328 
Q 3016 3291 2770 3770 
Q 2525 4250 2034 4250 
z
M 2034 4750 
Q 2819 4750 3233 4129 
Q 3647 3509 3647 2328 
Q 3647 1150 3233 529 
Q 2819 -91 2034 -91 
Q 1250 -91 836 529 
Q 422 1150 422 2328 
Q 422 3509 836 4129 
Q 1250 4750 2034 4750 
z
" id="DejaVuSans-30" transform="scale(0.015625)"/>
      </defs>
      <use xlink:href="#DejaVuSans-74"/>
      <use x="39.208984" xlink:href="#DejaVuSans-79"/>
      <use x="98.388672" xlink:href="#DejaVuSans-70"/>
      <use x="161.865234" xlink:href="#DejaVuSans-65"/>
      <use x="223.388672" xlink:href="#DejaVuSans-30"/>
     </g>
    </g>
   </g>
   <g id="line2d_1">
    <path clip-path="url(#p4a4c38f7ad)" d="M 85.939216 99.566667 
L 49.555882 63.183333 
" style="fill:none;stroke:#1f77b4;stroke-linecap:square;stroke-width:0.5;"/>
   </g>
   <g id="patch_3">
    <path d="M 49.555882 99.566667 
L 49.555882 26.8 
" style="fill:none;stroke:#000000;stroke-linecap:square;stroke-linejoin:miter;stroke-width:0.8;"/>
   </g>
   <g id="patch_4">
    <path d="M 122.322549 99.566667 
L 122.322549 26.8 
" style="fill:none;"/>
   </g>
   <g id="patch_5">
    <path d="M 49.555882 99.566667 
L 122.322549 99.566667 
" style="fill:none;stroke:#000000;stroke-linecap:square;stroke-linejoin:miter;stroke-width:0.8;"/>
   </g>
   <g id="patch_6">
    <path d="M 49.555882 26.8 
L 122.322549 26.8 
" style="fill:none;"/>
   </g>
   <g id="text_2">
    <!-- raw -->
    <g transform="translate(74.888903 20.8)scale(0.12 -0.12)">
     <defs>
      <path d="M 2631 2963 
Q 2534 3019 2420 3045 
Q 2306 3072 2169 3072 
Q 1681 3072 1420 2755 
Q 1159 2438 1159 1844 
L 1159 0 
L 581 0 
L 581 3500 
L 1159 3500 
L 1159 2956 
Q 1341 3275 1631 3429 
Q 1922 3584 2338 3584 
Q 2397 3584 2469 3576 
Q 2541 3569 2628 3553 
L 2631 2963 
z
" id="DejaVuSans-72" transform="scale(0.015625)"/>
      <path d="M 2194 1759 
Q 1497 1759 1228 1600 
Q 959 1441 959 1056 
Q 959 750 1161 570 
Q 1363 391 1709 391 
Q 2188 391 2477 730 
Q 2766 1069 2766 1631 
L 2766 1759 
L 2194 1759 
z
M 3341 1997 
L 3341 0 
L 2766 0 
L 2766 531 
Q 2569 213 2275 61 
Q 1981 -91 1556 -91 
Q 1019 -91 701 211 
Q 384 513 384 1019 
Q 384 1609 779 1909 
Q 1175 2209 1959 2209 
L 2766 2209 
L 2766 2266 
Q 2766 2663 2505 2880 
Q 2244 3097 1772 3097 
Q 1472 3097 1187 3025 
Q 903 2953 641 2809 
L 641 3341 
Q 956 3463 1253 3523 
Q 1550 3584 1831 3584 
Q 2591 3584 2966 3190 
Q 3341 2797 3341 1997 
z
" id="DejaVuSans-61" transform="scale(0.015625)"/>
      <path d="M 269 3500 
L 844 3500 
L 1563 769 
L 2278 3500 
L 2956 3500 
L 3675 769 
L 4391 3500 
L 4966 3500 
L 4050 0 
L 3372 0 
L 2619 2869 
L 1863 0 
L 1184 0 
L 269 3500 
z
" id="DejaVuSans-77" transform="scale(0.015625)"/>
     </defs>
     <use xlink:href="#DejaVuSans-72"/>
     <use x="41.113281" xlink:href="#DejaVuSans-61"/>
     <use x="102.392578" xlink:href="#DejaVuSans-77"/>
    </g>
   </g>
  </g>
  <g id="axes_2">
   <g id="patch_7">
    <path d="M 179.616667 99.566667 
L 252.383333 99.566667 
L 252.383333 26.8 
L 179.616667 26.8 
z
" style="fill:#ffffff;"/>
   </g>
   <g id="matplotlib.axis_3"/>
   <g id="matplotlib.axis_4"/>
   <g id="line2d_2">
    <path clip-path="url(#p85eae4b5a3)" d="M 216 99.566667 
L 197.808333 68.057776 
" style="fill:none;stroke:#1f77b4;stroke-linecap:square;stroke-width:0.5;"/>
   </g>
   <g id="patch_8">
    <path d="M 179.616667 99.566667 
L 179.616667 26.8 
" style="fill:none;stroke:#000000;stroke-linecap:square;stroke-linejoin:miter;stroke-width:0.8;"/>
   </g>
   <g id="patch_9">
    <path d="M 252.383333 99.566667 
L 252.383333 26.8 
" style="fill:none;"/>
   </g>
   <g id="patch_10">
    <path d="M 179.616667 99.566667 
L 252.383333 99.566667 
" style="fill:none;stroke:#000000;stroke-linecap:square;stroke-linejoin:miter;stroke-width:0.8;"/>
   </g>
   <g id="patch_11">
    <path d="M 179.616667 26.8 
L 252.383333 26.8 
" style="fill:none;"/>
   </g>
   <g id="text_3">
    <!-- LT -->
    <g transform="translate(209.817187 20.8)scale(0.12 -0.12)">
     <defs>
      <path d="M 628 4666 
L 1259 4666 
L 1259 531 
L 3531 531 
L 3531 0 
L 628 0 
L 628 4666 
z
" id="DejaVuSans-4c" transform="scale(0.015625)"/>
      <path d="M -19 4666 
L 3928 4666 
L 3928 4134 
L 2272 4134 
L 2272 0 
L 1638 0 
L 1638 4134 
L -19 4134 
L -19 4666 
z
" id="DejaVuSans-54" transform="scale(0.015625)"/>
     </defs>
     <use xlink:href="#DejaVuSans-4c"/>
     <use x="41.962891" xlink:href="#DejaVuSans-54"/>
    </g>
   </g>
  </g>
  <g id="axes_3">
   <g id="patch_12">
    <path d="M 309.677451 99.566667 
L 382.444118 99.566667 
L 382.444118 26.8 
L 309.677451 26.8 
z
" style="fill:#ffffff;"/>
   </g>
   <g id="matplotlib.axis_5"/>
   <g id="matplotlib.axis_6"/>
   <g id="line2d_3">
    <path clip-path="url(#p08bffbcf34)" d="M 364.252451 63.183333 
L 355.156618 47.428888 
" style="fill:none;stroke:#1f77b4;stroke-linecap:square;stroke-width:0.5;"/>
   </g>
   <g id="line2d_4">
    <path clip-path="url(#p08bffbcf34)" d="M 327.869118 63.183333 
L 336.964951 78.937779 
" style="fill:none;stroke:#ff7f0e;stroke-linecap:square;stroke-width:0.5;"/>
   </g>
   <g id="line2d_5">
    <path clip-path="url(#p08bffbcf34)" d="M 327.869118 63.183333 
L 336.964951 47.428888 
" style="fill:none;stroke:#2ca02c;stroke-linecap:square;stroke-width:0.5;"/>
   </g>
   <g id="line2d_6">
    <path clip-path="url(#p08bffbcf34)" d="M 364.252451 63.183333 
L 355.156618 78.937779 
" style="fill:none;stroke:#d62728;stroke-linecap:square;stroke-width:0.5;"/>
   </g>
   <g id="line2d_7">
    <path clip-path="url(#p08bffbcf34)" d="M 355.156618 78.937779 
L 364.252451 63.183333 
" style="fill:none;stroke:#9467bd;stroke-linecap:square;stroke-width:0.5;"/>
   </g>
   <g id="line2d_8">
    <path clip-path="url(#p08bffbcf34)" d="M 355.156618 47.428888 
L 364.252451 63.183333 
" style="fill:none;stroke:#8c564b;stroke-linecap:square;stroke-width:0.5;"/>
   </g>
   <g id="line2d_9">
    <path clip-path="url(#p08bffbcf34)" d="M 336.964951 47.428888 
L 327.869118 63.183333 
" style="fill:none;stroke:#e377c2;stroke-linecap:square;stroke-width:0.5;"/>
   </g>
   <g id="line2d_10">
    <path clip-path="url(#p08bffbcf34)" d="M 336.964951 78.937779 
L 327.869118 63.183333 
" style="fill:none;stroke:#7f7f7f;stroke-linecap:square;stroke-width:0.5;"/>
   </g>
   <g id="line2d_11">
    <path clip-path="url(#p08bffbcf34)" d="M 355.156618 47.428888 
L 336.964951 47.428888 
" style="fill:none;stroke:#bcbd22;stroke-linecap:square;stroke-width:0.5;"/>
   </g>
   <g id="line2d_12">
    <path clip-path="url(#p08bffbcf34)" d="M 355.156618 78.937779 
L 336.964951 78.937779 
" style="fill:none;stroke:#17becf;stroke-linecap:square;stroke-width:0.5;"/>
   </g>
   <g id="line2d_13">
    <path clip-path="url(#p08bffbcf34)" d="M 336.964951 78.937779 
L 355.156618 78.937779 
" style="fill:none;stroke:#1f77b4;stroke-linecap:square;stroke-width:0.5;"/>
   </g>
   <g id="line2d_14">
    <path clip-path="url(#p08bffbcf34)" d="M 336.964951 47.428888 
L 355.156618 47.428888 
" style="fill:none;stroke:#ff7f0e;stroke-linecap:square;stroke-width:0.5;"/>
   </g>
   <g id="patch_13">
    <path d="M 346.060784 99.566667 
L 346.060784 26.8 
" style="fill:none;stroke:#000000;stroke-linecap:square;stroke-linejoin:miter;stroke-width:0.8;"/>
   </g>
   <g id="patch_14">
    <path d="M 382.444118 99.566667 
L 382.444118 26.8 
" style="fill:none;"/>
   </g>
   <g id="patch_15">
    <path d="M 309.677451 63.183333 
L 382.444118 63.183333 
" style="fill:none;stroke:#000000;stroke-linecap:square;stroke-linejoin:miter;stroke-width:0.8;"/>
   </g>
   <g id="patch_16">
    <path d="M 309.677451 26.8 
L 382.444118 26.8 
" style="fill:none;"/>
   </g>
   <g id="text_4">
    <!-- Reflect -->
    <g transform="translate(325.347659 20.8)scale(0.12 -0.12)">
     <defs>
      <path d="M 2841 2188 
Q 3044 2119 3236 1894 
Q 3428 1669 3622 1275 
L 4263 0 
L 3584 0 
L 2988 1197 
Q 2756 1666 2539 1819 
Q 2322 1972 1947 1972 
L 1259 1972 
L 1259 0 
L 628 0 
L 628 4666 
L 2053 4666 
Q 2853 4666 3247 4331 
Q 3641 3997 3641 3322 
Q 3641 2881 3436 2590 
Q 3231 2300 2841 2188 
z
M 1259 4147 
L 1259 2491 
L 2053 2491 
Q 2509 2491 2742 2702 
Q 2975 2913 2975 3322 
Q 2975 3731 2742 3939 
Q 2509 4147 2053 4147 
L 1259 4147 
z
" id="DejaVuSans-52" transform="scale(0.015625)"/>
      <path d="M 2375 4863 
L 2375 4384 
L 1825 4384 
Q 1516 4384 1395 4259 
Q 1275 4134 1275 3809 
L 1275 3500 
L 2222 3500 
L 2222 3053 
L 1275 3053 
L 1275 0 
L 697 0 
L 697 3053 
L 147 3053 
L 147 3500 
L 697 3500 
L 697 3744 
Q 697 4328 969 4595 
Q 1241 4863 1831 4863 
L 2375 4863 
z
" id="DejaVuSans-66" transform="scale(0.015625)"/>
      <path d="M 603 4863 
L 1178 4863 
L 1178 0 
L 603 0 
L 603 4863 
z
" id="DejaVuSans-6c" transform="scale(0.015625)"/>
      <path d="M 3122 3366 
L 3122 2828 
Q 2878 2963 2633 3030 
Q 2388 3097 2138 3097 
Q 1578 3097 1268 2742 
Q 959 2388 959 1747 
Q 959 1106 1268 751 
Q 1578 397 2138 397 
Q 2388 397 2633 464 
Q 2878 531 3122 666 
L 3122 134 
Q 2881 22 2623 -34 
Q 2366 -91 2075 -91 
Q 1284 -91 818 406 
Q 353 903 353 1747 
Q 353 2603 823 3093 
Q 1294 3584 2113 3584 
Q 2378 3584 2631 3529 
Q 2884 3475 3122 3366 
z
" id="DejaVuSans-63" transform="scale(0.015625)"/>
     </defs>
     <use xlink:href="#DejaVuSans-52"/>
     <use x="64.982422" xlink:href="#DejaVuSans-65"/>
     <use x="126.505859" xlink:href="#DejaVuSans-66"/>
     <use x="161.710938" xlink:href="#DejaVuSans-6c"/>
     <use x="189.494141" xlink:href="#DejaVuSans-65"/>
     <use x="251.017578" xlink:href="#DejaVuSans-63"/>
     <use x="305.998047" xlink:href="#DejaVuSans-74"/>
    </g>
   </g>
  </g>
  <g id="axes_4">
   <g id="patch_17">
    <path d="M 49.555882 186.633333 
L 122.322549 186.633333 
L 122.322549 113.866667 
L 49.555882 113.866667 
z
" style="fill:#ffffff;"/>
   </g>
   <g id="matplotlib.axis_7"/>
   <g id="matplotlib.axis_8">
    <g id="text_5">
     <!-- type1 -->
     <g transform="translate(43.060257 167.471875)rotate(-90)scale(0.12 -0.12)">
      <defs>
       <path d="M 794 531 
L 1825 531 
L 1825 4091 
L 703 3866 
L 703 4441 
L 1819 4666 
L 2450 4666 
L 2450 531 
L 3481 531 
L 3481 0 
L 794 0 
L 794 531 
z
" id="DejaVuSans-31" transform="scale(0.015625)"/>
      </defs>
      <use xlink:href="#DejaVuSans-74"/>
      <use x="39.208984" xlink:href="#DejaVuSans-79"/>
      <use x="98.388672" xlink:href="#DejaVuSans-70"/>
      <use x="161.865234" xlink:href="#DejaVuSans-65"/>
      <use x="223.388672" xlink:href="#DejaVuSans-31"/>
     </g>
    </g>
   </g>
   <g id="line2d_15">
    <path clip-path="url(#p06c7e3f195)" d="M 85.939216 186.633333 
L 85.939216 157.692045 
L 80.150958 151.903788 
L 74.362701 157.692045 
L 74.362701 186.633333 
" style="fill:none;stroke:#1f77b4;stroke-linecap:square;stroke-width:0.5;"/>
   </g>
   <g id="patch_18">
    <path d="M 49.555882 186.633333 
L 49.555882 113.866667 
" style="fill:none;stroke:#000000;stroke-linecap:square;stroke-linejoin:miter;stroke-width:0.8;"/>
   </g>
   <g id="patch_19">
    <path d="M 122.322549 186.633333 
L 122.322549 113.866667 
" style="fill:none;"/>
   </g>
   <g id="patch_20">
    <path d="M 49.555882 186.633333 
L 122.322549 186.633333 
" style="fill:none;stroke:#000000;stroke-linecap:square;stroke-linejoin:miter;stroke-width:0.8;"/>
   </g>
   <g id="patch_21">
    <path d="M 49.555882 113.866667 
L 122.322549 113.866667 
" style="fill:none;"/>
   </g>
  </g>
  <g id="axes_5">
   <g id="patch_22">
    <path d="M 179.616667 186.633333 
L 252.383333 186.633333 
L 252.383333 113.866667 
L 179.616667 113.866667 
z
" style="fill:#ffffff;"/>
   </g>
   <g id="matplotlib.axis_9"/>
   <g id="matplotlib.axis_10"/>
   <g id="line2d_16">
    <path clip-path="url(#p4eadaa25f5)" d="M 216 186.633333 
L 230.470644 161.569443 
L 227.576515 156.556665 
L 218.894129 161.569443 
L 204.423485 186.633333 
" style="fill:none;stroke:#1f77b4;stroke-linecap:square;stroke-width:0.5;"/>
   </g>
   <g id="patch_23">
    <path d="M 179.616667 186.633333 
L 179.616667 113.866667 
" style="fill:none;stroke:#000000;stroke-linecap:square;stroke-linejoin:miter;stroke-width:0.8;"/>
   </g>
   <g id="patch_24">
    <path d="M 252.383333 186.633333 
L 252.383333 113.866667 
" style="fill:none;"/>
   </g>
   <g id="patch_25">
    <path d="M 179.616667 186.633333 
L 252.383333 186.633333 
" style="fill:none;stroke:#000000;stroke-linecap:square;stroke-linejoin:miter;stroke-width:0.8;"/>
   </g>
   <g id="patch_26">
    <path d="M 179.616667 113.866667 
L 252.383333 113.866667 
" style="fill:none;"/>
   </g>
  </g>
  <g id="axes_6">
   <g id="patch_27">
    <path d="M 309.677451 186.633333 
L 382.444118 186.633333 
L 382.444118 113.866667 
L 309.677451 113.866667 
z
" style="fill:#ffffff;"/>
   </g>
   <g id="matplotlib.axis_11"/>
   <g id="matplotlib.axis_12"/>
   <g id="line2d_17">
    <path clip-path="url(#ped27bab260)" d="M 364.252451 150.25 
L 371.487773 137.718055 
L 370.040709 135.211666 
L 365.699515 137.718055 
L 358.464193 150.25 
" style="fill:none;stroke:#1f77b4;stroke-linecap:square;stroke-width:0.5;"/>
   </g>
   <g id="line2d_18">
    <path clip-path="url(#ped27bab260)" d="M 327.869118 150.25 
L 320.633796 162.781945 
L 322.08086 165.288334 
L 326.422053 162.781945 
L 333.657375 150.25 
" style="fill:none;stroke:#ff7f0e;stroke-linecap:square;stroke-width:0.5;"/>
   </g>
   <g id="line2d_19">
    <path clip-path="url(#ped27bab260)" d="M 327.869118 150.25 
L 320.633796 137.718055 
L 322.08086 135.211666 
L 326.422053 137.718055 
L 333.657375 150.25 
" style="fill:none;stroke:#2ca02c;stroke-linecap:square;stroke-width:0.5;"/>
   </g>
   <g id="line2d_20">
    <path clip-path="url(#ped27bab260)" d="M 364.252451 150.25 
L 371.487773 162.781945 
L 370.040709 165.288334 
L 365.699515 162.781945 
L 358.464193 150.25 
" style="fill:none;stroke:#d62728;stroke-linecap:square;stroke-width:0.5;"/>
   </g>
   <g id="line2d_21">
    <path clip-path="url(#ped27bab260)" d="M 355.156618 166.004445 
L 369.627262 166.004445 
L 371.074326 163.498056 
L 366.733133 160.991667 
L 352.262489 160.991667 
" style="fill:none;stroke:#9467bd;stroke-linecap:square;stroke-width:0.5;"/>
   </g>
   <g id="line2d_22">
    <path clip-path="url(#ped27bab260)" d="M 355.156618 134.495555 
L 369.627262 134.495555 
L 371.074326 137.001944 
L 366.733133 139.508333 
L 352.262489 139.508333 
" style="fill:none;stroke:#8c564b;stroke-linecap:square;stroke-width:0.5;"/>
   </g>
   <g id="line2d_23">
    <path clip-path="url(#ped27bab260)" d="M 336.964951 134.495555 
L 322.494307 134.495555 
L 321.047243 137.001944 
L 325.388436 139.508333 
L 339.85908 139.508333 
" style="fill:none;stroke:#e377c2;stroke-linecap:square;stroke-width:0.5;"/>
   </g>
   <g id="line2d_24">
    <path clip-path="url(#ped27bab260)" d="M 336.964951 166.004445 
L 322.494307 166.004445 
L 321.047243 163.498056 
L 325.388436 160.991667 
L 339.85908 160.991667 
" style="fill:none;stroke:#7f7f7f;stroke-linecap:square;stroke-width:0.5;"/>
   </g>
   <g id="line2d_25">
    <path clip-path="url(#ped27bab260)" d="M 355.156618 134.495555 
L 347.921296 121.963609 
L 345.027167 121.963609 
L 345.027167 126.976387 
L 352.262489 139.508333 
" style="fill:none;stroke:#bcbd22;stroke-linecap:square;stroke-width:0.5;"/>
   </g>
   <g id="line2d_26">
    <path clip-path="url(#ped27bab260)" d="M 355.156618 166.004445 
L 347.921296 178.536391 
L 345.027167 178.536391 
L 345.027167 173.523613 
L 352.262489 160.991667 
" style="fill:none;stroke:#17becf;stroke-linecap:square;stroke-width:0.5;"/>
   </g>
   <g id="line2d_27">
    <path clip-path="url(#ped27bab260)" d="M 336.964951 166.004445 
L 344.200273 178.536391 
L 347.094402 178.536391 
L 347.094402 173.523613 
L 339.85908 160.991667 
" style="fill:none;stroke:#1f77b4;stroke-linecap:square;stroke-width:0.5;"/>
   </g>
   <g id="line2d_28">
    <path clip-path="url(#ped27bab260)" d="M 336.964951 134.495555 
L 344.200273 121.963609 
L 347.094402 121.963609 
L 347.094402 126.976387 
L 339.85908 139.508333 
" style="fill:none;stroke:#ff7f0e;stroke-linecap:square;stroke-width:0.5;"/>
   </g>
   <g id="patch_28">
    <path d="M 346.060784 186.633333 
L 346.060784 113.866667 
" style="fill:none;stroke:#000000;stroke-linecap:square;stroke-linejoin:miter;stroke-width:0.8;"/>
   </g>
   <g id="patch_29">
    <path d="M 382.444118 186.633333 
L 382.444118 113.866667 
" style="fill:none;"/>
   </g>
   <g id="patch_30">
    <path d="M 309.677451 150.25 
L 382.444118 150.25 
" style="fill:none;stroke:#000000;stroke-linecap:square;stroke-linejoin:miter;stroke-width:0.8;"/>
   </g>
   <g id="patch_31">
    <path d="M 309.677451 113.866667 
L 382.444118 113.866667 
" style="fill:none;"/>
   </g>
  </g>
  <g id="axes_7">
   <g id="patch_32">
    <path d="M 49.555882 273.7 
L 122.322549 273.7 
L 122.322549 200.933333 
L 49.555882 200.933333 
z
" style="fill:#ffffff;"/>
   </g>
   <g id="matplotlib.axis_13"/>
   <g id="matplotlib.axis_14">
    <g id="text_6">
     <!-- type2 -->
     <g transform="translate(43.060257 254.538542)rotate(-90)scale(0.12 -0.12)">
      <defs>
       <path d="M 1228 531 
L 3431 531 
L 3431 0 
L 469 0 
L 469 531 
Q 828 903 1448 1529 
Q 2069 2156 2228 2338 
Q 2531 2678 2651 2914 
Q 2772 3150 2772 3378 
Q 2772 3750 2511 3984 
Q 2250 4219 1831 4219 
Q 1534 4219 1204 4116 
Q 875 4013 500 3803 
L 500 4441 
Q 881 4594 1212 4672 
Q 1544 4750 1819 4750 
Q 2544 4750 2975 4387 
Q 3406 4025 3406 3419 
Q 3406 3131 3298 2873 
Q 3191 2616 2906 2266 
Q 2828 2175 2409 1742 
Q 1991 1309 1228 531 
z
" id="DejaVuSans-32" transform="scale(0.015625)"/>
      </defs>
      <use xlink:href="#DejaVuSans-74"/>
      <use x="39.208984" xlink:href="#DejaVuSans-79"/>
      <use x="98.388672" xlink:href="#DejaVuSans-70"/>
      <use x="161.865234" xlink:href="#DejaVuSans-65"/>
      <use x="223.388672" xlink:href="#DejaVuSans-32"/>
     </g>
    </g>
   </g>
   <g id="line2d_29">
    <path clip-path="url(#p5e54f6e2a5)" d="M 85.939216 273.7 
L 80.150958 267.911742 
L 74.362701 267.911742 
L 74.362701 273.7 
" style="fill:none;stroke:#1f77b4;stroke-linecap:square;stroke-width:0.5;"/>
   </g>
   <g id="patch_33">
    <path d="M 49.555882 273.7 
L 49.555882 200.933333 
" style="fill:none;stroke:#000000;stroke-linecap:square;stroke-linejoin:miter;stroke-width:0.8;"/>
   </g>
   <g id="patch_34">
    <path d="M 122.322549 273.7 
L 122.322549 200.933333 
" style="fill:none;"/>
   </g>
   <g id="patch_35">
    <path d="M 49.555882 273.7 
L 122.322549 273.7 
" style="fill:none;stroke:#000000;stroke-linecap:square;stroke-linejoin:miter;stroke-width:0.8;"/>
   </g>
   <g id="patch_36">
    <path d="M 49.555882 200.933333 
L 122.322549 200.933333 
" style="fill:none;"/>
   </g>
  </g>
  <g id="axes_8">
   <g id="patch_37">
    <path d="M 179.616667 273.7 
L 252.383333 273.7 
L 252.383333 200.933333 
L 179.616667 200.933333 
z
" style="fill:#ffffff;"/>
   </g>
   <g id="matplotlib.axis_15"/>
   <g id="matplotlib.axis_16"/>
   <g id="line2d_30">
    <path clip-path="url(#p4e095b58b6)" d="M 216 273.7 
L 213.105871 268.687222 
L 207.317614 268.687222 
L 204.423485 273.7 
" style="fill:none;stroke:#1f77b4;stroke-linecap:square;stroke-width:0.5;"/>
   </g>
   <g id="patch_38">
    <path d="M 179.616667 273.7 
L 179.616667 200.933333 
" style="fill:none;stroke:#000000;stroke-linecap:square;stroke-linejoin:miter;stroke-width:0.8;"/>
   </g>
   <g id="patch_39">
    <path d="M 252.383333 273.7 
L 252.383333 200.933333 
" style="fill:none;"/>
   </g>
   <g id="patch_40">
    <path d="M 179.616667 273.7 
L 252.383333 273.7 
" style="fill:none;stroke:#000000;stroke-linecap:square;stroke-linejoin:miter;stroke-width:0.8;"/>
   </g>
   <g id="patch_41">
    <path d="M 179.616667 200.933333 
L 252.383333 200.933333 
" style="fill:none;"/>
   </g>
  </g>
  <g id="axes_9">
   <g id="patch_42">
    <path d="M 309.677451 273.7 
L 382.444118 273.7 
L 382.444118 200.933333 
L 309.677451 200.933333 
z
" style="fill:#ffffff;"/>
   </g>
   <g id="matplotlib.axis_17"/>
   <g id="matplotlib.axis_18"/>
   <g id="line2d_31">
    <path clip-path="url(#p6befa3d2a3)" d="M 364.252451 237.316667 
L 362.805387 234.810278 
L 359.911258 234.810278 
L 358.464193 237.316667 
" style="fill:none;stroke:#1f77b4;stroke-linecap:square;stroke-width:0.5;"/>
   </g>
   <g id="line2d_32">
    <path clip-path="url(#p6befa3d2a3)" d="M 327.869118 237.316667 
L 329.316182 239.823056 
L 332.210311 239.823056 
L 333.657375 237.316667 
" style="fill:none;stroke:#ff7f0e;stroke-linecap:square;stroke-width:0.5;"/>
   </g>
   <g id="line2d_33">
    <path clip-path="url(#p6befa3d2a3)" d="M 327.869118 237.316667 
L 329.316182 234.810278 
L 332.210311 234.810278 
L 333.657375 237.316667 
" style="fill:none;stroke:#2ca02c;stroke-linecap:square;stroke-width:0.5;"/>
   </g>
   <g id="line2d_34">
    <path clip-path="url(#p6befa3d2a3)" d="M 364.252451 237.316667 
L 362.805387 239.823056 
L 359.911258 239.823056 
L 358.464193 237.316667 
" style="fill:none;stroke:#d62728;stroke-linecap:square;stroke-width:0.5;"/>
   </g>
   <g id="line2d_35">
    <path clip-path="url(#p6befa3d2a3)" d="M 355.156618 253.071112 
L 356.603682 250.564723 
L 355.156618 248.058334 
L 352.262489 248.058334 
" style="fill:none;stroke:#9467bd;stroke-linecap:square;stroke-width:0.5;"/>
   </g>
   <g id="line2d_36">
    <path clip-path="url(#p6befa3d2a3)" d="M 355.156618 221.562221 
L 356.603682 224.06861 
L 355.156618 226.574999 
L 352.262489 226.574999 
" style="fill:none;stroke:#8c564b;stroke-linecap:square;stroke-width:0.5;"/>
   </g>
   <g id="line2d_37">
    <path clip-path="url(#p6befa3d2a3)" d="M 336.964951 221.562221 
L 335.517887 224.06861 
L 336.964951 226.574999 
L 339.85908 226.574999 
" style="fill:none;stroke:#e377c2;stroke-linecap:square;stroke-width:0.5;"/>
   </g>
   <g id="line2d_38">
    <path clip-path="url(#p6befa3d2a3)" d="M 336.964951 253.071112 
L 335.517887 250.564723 
L 336.964951 248.058334 
L 339.85908 248.058334 
" style="fill:none;stroke:#7f7f7f;stroke-linecap:square;stroke-width:0.5;"/>
   </g>
   <g id="line2d_39">
    <path clip-path="url(#p6befa3d2a3)" d="M 355.156618 221.562221 
L 352.262489 221.562221 
L 350.815424 224.06861 
L 352.262489 226.574999 
" style="fill:none;stroke:#bcbd22;stroke-linecap:square;stroke-width:0.5;"/>
   </g>
   <g id="line2d_40">
    <path clip-path="url(#p6befa3d2a3)" d="M 355.156618 253.071112 
L 352.262489 253.071112 
L 350.815424 250.564723 
L 352.262489 248.058334 
" style="fill:none;stroke:#17becf;stroke-linecap:square;stroke-width:0.5;"/>
   </g>
   <g id="line2d_41">
    <path clip-path="url(#p6befa3d2a3)" d="M 336.964951 253.071112 
L 339.85908 253.071112 
L 341.306144 250.564723 
L 339.85908 248.058334 
" style="fill:none;stroke:#1f77b4;stroke-linecap:square;stroke-width:0.5;"/>
   </g>
   <g id="line2d_42">
    <path clip-path="url(#p6befa3d2a3)" d="M 336.964951 221.562221 
L 339.85908 221.562221 
L 341.306144 224.06861 
L 339.85908 226.574999 
" style="fill:none;stroke:#ff7f0e;stroke-linecap:square;stroke-width:0.5;"/>
   </g>
   <g id="patch_43">
    <path d="M 346.060784 273.7 
L 346.060784 200.933333 
" style="fill:none;stroke:#000000;stroke-linecap:square;stroke-linejoin:miter;stroke-width:0.8;"/>
   </g>
   <g id="patch_44">
    <path d="M 382.444118 273.7 
L 382.444118 200.933333 
" style="fill:none;"/>
   </g>
   <g id="patch_45">
    <path d="M 309.677451 237.316667 
L 382.444118 237.316667 
" style="fill:none;stroke:#000000;stroke-linecap:square;stroke-linejoin:miter;stroke-width:0.8;"/>
   </g>
   <g id="patch_46">
    <path d="M 309.677451 200.933333 
L 382.444118 200.933333 
" style="fill:none;"/>
   </g>
  </g>
 </g>
 <defs>
  <clipPath id="p4a4c38f7ad">
   <rect height="72.766667" width="72.766667" x="49.555882" y="26.8"/>
  </clipPath>
  <clipPath id="p85eae4b5a3">
   <rect height="72.766667" width="72.766667" x="179.616667" y="26.8"/>
  </clipPath>
  <clipPath id="p08bffbcf34">
   <rect height="72.766667" width="72.766667" x="309.677451" y="26.8"/>
  </clipPath>
  <clipPath id="p06c7e3f195">
   <rect height="72.766667" width="72.766667" x="49.555882" y="113.866667"/>
  </clipPath>
  <clipPath id="p4eadaa25f5">
   <rect height="72.766667" width="72.766667" x="179.616667" y="113.866667"/>
  </clipPath>
  <clipPath id="ped27bab260">
   <rect height="72.766667" width="72.766667" x="309.677451" y="113.866667"/>
  </clipPath>
  <clipPath id="p5e54f6e2a5">
   <rect height="72.766667" width="72.766667" x="49.555882" y="200.933333"/>
  </clipPath>
  <clipPath id="p4e095b58b6">
   <rect height="72.766667" width="72.766667" x="179.616667" y="200.933333"/>
  </clipPath>
  <clipPath id="p6befa3d2a3">
   <rect height="72.766667" width="72.766667" x="309.677451" y="200.933333"/>
  </clipPath>
 </defs>
</svg>
